<svg width="30" height="30" viewBox="0 0 30 30" fill="none" xmlns="http://www.w3.org/2000/svg">
<path d="M26.1837 10.3811C26.1711 9.43435 25.9939 8.49704 25.66 7.61107C25.3704 6.86376 24.9282 6.18507 24.3615 5.61836C23.7948 5.05165 23.1161 4.60939 22.3687 4.31982C21.4942 3.99152 20.5702 3.814 19.6362 3.79482C18.4337 3.74107 18.0525 3.72607 15 3.72607C11.9475 3.72607 11.5562 3.72607 10.3625 3.79482C9.42895 3.81414 8.50543 3.99166 7.63125 4.31982C6.88382 4.60919 6.20502 5.05138 5.63829 5.61812C5.07155 6.18485 4.62936 6.86365 4.34 7.61107C4.01104 8.48499 3.8339 9.40871 3.81625 10.3423C3.7625 11.5461 3.74625 11.9273 3.74625 14.9798C3.74625 18.0323 3.74625 18.4223 3.81625 19.6173C3.835 20.5523 4.01125 21.4748 4.34 22.3511C4.62984 23.0983 5.07237 23.7768 5.63929 24.3433C6.20622 24.9098 6.88508 25.3518 7.6325 25.6411C8.50429 25.9826 9.42796 26.1728 10.3637 26.2036C11.5675 26.2573 11.9487 26.2736 15.0012 26.2736C18.0537 26.2736 18.445 26.2736 19.6387 26.2036C20.5727 26.1852 21.4967 26.0081 22.3712 25.6798C23.1184 25.3899 23.7969 24.9475 24.3635 24.3809C24.9302 23.8142 25.3726 23.1357 25.6625 22.3886C25.9912 21.5136 26.1675 20.5911 26.1862 19.6548C26.24 18.4523 26.2562 18.0711 26.2562 15.0173C26.2537 11.9648 26.2537 11.5773 26.1837 10.3811ZM14.9925 20.7523C11.8 20.7523 9.21375 18.1661 9.21375 14.9736C9.21375 11.7811 11.8 9.19482 14.9925 9.19482C16.5251 9.19482 17.995 9.80366 19.0787 10.8874C20.1624 11.9711 20.7712 13.441 20.7712 14.9736C20.7712 16.5062 20.1624 17.976 19.0787 19.0598C17.995 20.1435 16.5251 20.7523 14.9925 20.7523ZM21.0012 10.3286C20.8242 10.3287 20.6489 10.294 20.4854 10.2263C20.3218 10.1587 20.1732 10.0594 20.0481 9.93427C19.9229 9.80911 19.8236 9.66049 19.756 9.49693C19.6883 9.33337 19.6536 9.15808 19.6537 8.98107C19.6537 8.8042 19.6886 8.62906 19.7563 8.46565C19.824 8.30224 19.9232 8.15376 20.0482 8.02869C20.1733 7.90362 20.3218 7.80441 20.4852 7.73672C20.6486 7.66904 20.8237 7.6342 21.0006 7.6342C21.1775 7.6342 21.3526 7.66904 21.516 7.73672C21.6795 7.80441 21.8279 7.90362 21.953 8.02869C22.0781 8.15376 22.1773 8.30224 22.245 8.46565C22.3127 8.62906 22.3475 8.8042 22.3475 8.98107C22.3475 9.72607 21.745 10.3286 21.0012 10.3286Z" fill="#DCC7B1"/>
<path d="M14.9925 18.7277C17.0656 18.7277 18.7462 17.0471 18.7462 14.974C18.7462 12.9008 17.0656 11.2202 14.9925 11.2202C12.9194 11.2202 11.2387 12.9008 11.2387 14.974C11.2387 17.0471 12.9194 18.7277 14.9925 18.7277Z" fill="#DCC7B1"/>
</svg>
