<svg width="30" height="30" viewBox="0 0 30 30" fill="none" xmlns="http://www.w3.org/2000/svg">
<path d="M24.5412 9.99643C24.5575 10.2152 24.5575 10.4327 24.5575 10.6502C24.5575 17.3064 19.4912 24.9764 10.2325 24.9764C7.38 24.9764 4.73 24.1502 2.5 22.7152C2.905 22.7614 3.295 22.7777 3.71625 22.7777C5.98249 22.7831 8.18456 22.0253 9.9675 20.6264C8.91678 20.6074 7.89822 20.2607 7.05405 19.6348C6.20987 19.0089 5.58223 18.135 5.25875 17.1352C5.57 17.1814 5.8825 17.2127 6.21 17.2127C6.66125 17.2127 7.115 17.1502 7.53625 17.0414C6.39595 16.8112 5.37059 16.1931 4.63452 15.2923C3.89845 14.3915 3.49712 13.2635 3.49875 12.1002V12.0377C4.17 12.4114 4.94875 12.6452 5.77375 12.6764C5.08261 12.2172 4.5159 11.594 4.12417 10.8624C3.73245 10.1309 3.52789 9.31375 3.52875 8.48393C3.52875 7.54893 3.7775 6.69143 4.21375 5.94393C5.47892 7.5002 7.05688 8.77338 8.84542 9.681C10.634 10.5886 12.5932 11.1104 14.5962 11.2127C14.5187 10.8377 14.4712 10.4489 14.4712 10.0589C14.4709 9.39763 14.6009 8.74275 14.8538 8.13173C15.1068 7.5207 15.4776 6.96552 15.9452 6.49791C16.4128 6.0303 16.968 5.65944 17.579 5.40652C18.1901 5.15361 18.8449 5.0236 19.5062 5.02393C20.9562 5.02393 22.265 5.63143 23.185 6.61393C24.3122 6.39595 25.3932 5.98445 26.38 5.39768C26.0043 6.5612 25.2172 7.54781 24.1662 8.17268C25.166 8.05865 26.143 7.79574 27.065 7.39268C26.3764 8.39655 25.5231 9.27686 24.5412 9.99643Z" fill="#DCC7B1"/>
</svg>
